<svg id="Logo_2" data-name="Logo 2" xmlns="http://www.w3.org/2000/svg" width="171" height="151" viewBox="0 0 171 151">
  <defs>
    <style>
      .cls-1, .cls-3 {
        fill: #fff;
      }

      .cls-1, .cls-2 {
        fill-opacity: 0;
        stroke: #fff;
        stroke-linejoin: round;
      }

      .cls-1 {
        stroke-width: 1px;
        opacity: 0.1;
      }

      .cls-2 {
        fill: #202020;
        stroke-width: 6px;
      }

      .cls-3 {
        fill-rule: evenodd;
      }
    </style>
  </defs>
  <rect id="Logo_PlaceHolder" data-name="Logo PlaceHolder" class="cls-1" x="0.5" y="0.5" width="170" height="150"/>
  <g id="Logo">
    <rect id="BG" class="cls-2" x="45.5" y="35.5" width="80" height="80"/>
    <path id="fr" class="cls-3" d="M668.394,5842.66a4.211,4.211,0,0,1-3.045-1.14,4.036,4.036,0,0,0-1.512-1.14q-1.023,0-3.254,3.21a31.709,31.709,0,0,0-3.465,6.27,69.748,69.748,0,0,0-2.72,9.58L651.971,5870h-8.81l7.145-32.46h-7.161l0.605-2.37h5.812a66.264,66.264,0,0,0,9.9-.61l-2.7,11.54,0.187,0.18q6.369-12.27,11.438-12.27a4.55,4.55,0,0,1,3.232,1.25,4.13,4.13,0,0,1,1.325,3.12,4.05,4.05,0,0,1-1.278,3.07A4.61,4.61,0,0,1,668.394,5842.66Zm-20.506-22.74a4.054,4.054,0,0,1-2.929-1.23,3.912,3.912,0,0,1-1.256-2.86,4.132,4.132,0,0,1,1.349-2.98,8.8,8.8,0,0,0,1.348-1.49c0-.65-0.93-0.97-2.79-0.97q-6.278,0-8.951,6.79t-3.883,17.99h6.743l-0.465,2.37H630.5l-3.394,20.18q-1.2,7.095-2.434,12.28H620v-24.66l0.965-5.43q0.046-.18.233-1.23a9.963,9.963,0,0,1,.232-1.14H620v-2.37h1.988q2.79-13.62,8.672-20.3t12.3-6.67a9.995,9.995,0,0,1,6.371,2.09,6.282,6.282,0,0,1,2.65,5.07,4.7,4.7,0,0,1-1.186,3.21A3.721,3.721,0,0,1,647.888,5819.92Z" transform="translate(-574.5 -5760.5)"/>
  </g>
</svg>
