<svg id="Logo" xmlns="http://www.w3.org/2000/svg" width="70" height="70" viewBox="0 0 70 70">
  <defs>
    <style>
      .cls-1 {
        fill: #f63c3c;
      }

      .cls-2 {
        fill: #fff;
        fill-rule: evenodd;
      }
    </style>
  </defs>
  <rect id="BG" class="cls-1" width="70" height="70"/>
  <path id="SA_GE" data-name="SA GE" class="cls-2" d="M27.9,27.862a1.032,1.032,0,0,1-.7.164H25.959a1.1,1.1,0,0,1-.713-0.164,0.969,0.969,0,0,1-.178-0.7V24.846h-2.7v2.733q0,2.615,2.763,2.614h2.882q2.792,0,2.793-2.614V22.232q0-2.613-2.733-2.614H25.9a1.1,1.1,0,0,1-.713-0.163,0.967,0.967,0,0,1-.178-0.7V14.626a0.971,0.971,0,0,1,.178-0.7,1.1,1.1,0,0,1,.713-0.163h1.248a1.1,1.1,0,0,1,.713.163,0.971,0.971,0,0,1,.178.7v2.317h2.7V14.21q0-2.613-2.763-2.614H25.068Q22.3,11.6,22.3,14.21v4.9q0,2.644,2.7,2.644h2.2a1.037,1.037,0,0,1,.7.163,1.036,1.036,0,0,1,.163.7v4.545A1.035,1.035,0,0,1,27.9,27.862ZM41.912,13.914l1.693,9.8H40.367Zm5.5,16.279L43.873,11.6H39.981l-3.3,18.6h2.674l0.683-4.307h3.922L44.7,30.193h2.7Zm-16.429,6.3q0-2.613-2.763-2.614H25.038q-2.763,0-2.763,2.614V49.861q0,2.644,2.763,2.644h3.179q2.763,0,2.763-2.644V42.909H26.791v2.079h1.485v4.545a0.969,0.969,0,0,1-.178.7,1.1,1.1,0,0,1-.713.164H25.87a1.1,1.1,0,0,1-.713-0.164,0.969,0.969,0,0,1-.178-0.7V36.848a0.969,0.969,0,0,1,.178-0.7,1.1,1.1,0,0,1,.713-0.164h1.515a1.1,1.1,0,0,1,.713.164,0.969,0.969,0,0,1,.178.7v2.466h2.7V36.492Zm9.893,7.457H45.15V41.78H40.872V36.046h5.169V33.878H38.169v18.6H46.25V50.306H40.872V43.949ZM22.438,55.465H46.2v2.377H22.438V55.465Z"/>
</svg>
